<svg xmlns="http://www.w3.org/2000/svg" width="1024" height="1024" viewBox="0 0 1024 1024"><metadata><rdf:RDF xmlns:rdf="http://www.w3.org/1999/02/22-rdf-syntax-ns#" xmlns:dc="http://purl.org/dc/elements/1.1/"><rdf:Description><dc:creator>RealFaviconGenerator</dc:creator><dc:source>https://realfavicongenerator.net</dc:source></rdf:Description></rdf:RDF></metadata><defs>
    
    <marker id="arrow_dark_drmSEM_hex_logo_v1_refined_balance" markerWidth="24" markerHeight="24" refX="20" refY="12" orient="auto" markerUnits="userSpaceOnUse">
      <path d="M5,5 L20,12 L5,19 Z" fill="#267F5F" opacity="1.0"></path>
    </marker>
    
    
    <marker id="arrow_light_drmSEM_hex_logo_v1_refined_balance" markerWidth="24" markerHeight="24" refX="20" refY="12" orient="auto" markerUnits="userSpaceOnUse">
      <path d="M5,5 L20,12 L5,19 Z" fill="#9BCBBE" opacity="1.0"></path>
    </marker>
    
    <filter id="softShadow" x="-20%" y="-20%" width="140%" height="140%">
      <feDropShadow dx="0" dy="1.5" stdDeviation="1.6" flood-color="#06202D" flood-opacity="0.15"></feDropShadow>
    </filter>
  </defs><rect width="100%" height="100%" fill="none"></rect><g filter="url(#softShadow)">
    <polygon points="512.0,42.0 919.0,277.0 919.0,747.0 512.0,982.0 105.0,747.0 105.0,277.0" fill="#D8EBE6" stroke="none"></polygon>
    <polygon points="512.0,107.0 862.7,309.5 862.7,714.5 512.0,917.0 161.3,714.5 161.3,309.5" fill="#EAF5F2" stroke="#0B2D42" stroke-width="10" stroke-linejoin="round"></polygon>
    <polygon points="512.0,120.0 851.5,316.0 851.5,708.0 512.0,904.0 172.5,708.0 172.5,316.0" fill="none" stroke="#2B8A67" stroke-width="10" stroke-linejoin="round"></polygon>
  </g><g stroke-linecap="round" stroke-linejoin="round">
    <!-- M: lighter, flatter distribution -->
    <path d="M380.0,325.0 L380.0,323.9 L382.9,323.6 L385.8,323.3 L388.7,323.0 L391.6,322.6 L394.6,322.2 L397.5,321.6 L400.4,321.0 L403.3,320.4 L406.2,319.6 L409.1,318.7 L412.0,317.8 L414.9,316.7 L417.8,315.5 L420.8,314.2 L423.7,312.8 L426.6,311.2 L429.5,309.6 L432.4,307.8 L435.3,305.9 L438.2,303.9 L441.1,301.8 L444.1,299.7 L447.0,297.5 L449.9,295.2 L452.8,292.9 L455.7,290.6 L458.6,288.3 L461.5,286.1 L464.4,283.9 L467.3,281.8 L470.3,279.8 L473.2,278.0 L476.1,276.4 L479.0,274.9 L481.9,273.6 L484.8,272.6 L487.7,271.8 L490.6,271.3 L493.5,271.0 L496.5,271.0 L499.4,271.3 L502.3,271.8 L505.2,272.6 L508.1,273.6 L511.0,274.9 L513.9,276.4 L516.8,278.0 L519.7,279.8 L522.7,281.8 L525.6,283.9 L528.5,286.1 L531.4,288.3 L534.3,290.6 L537.2,292.9 L540.1,295.2 L543.0,297.5 L545.9,299.7 L548.9,301.8 L551.8,303.9 L554.7,305.9 L557.6,307.8 L560.5,309.6 L563.4,311.2 L566.3,312.8 L569.2,314.2 L572.2,315.5 L575.1,316.7 L578.0,317.8 L580.9,318.7 L583.8,319.6 L586.7,320.4 L589.6,321.0 L592.5,321.6 L595.4,322.2 L598.4,322.6 L601.3,323.0 L604.2,323.3 L607.1,323.6 L610.0,323.9 L610.0,325.0 Z" fill="#DDEFEA" opacity="0.88" stroke="none"></path>
    <path d="M380.0,325.0 L380.0,323.9 L382.9,323.6 L385.8,323.3 L388.7,323.0 L391.6,322.6 L394.6,322.2 L397.5,321.6 L400.4,321.0 L403.3,320.4 L406.2,319.6 L409.1,318.7 L412.0,317.8 L414.9,316.7 L417.8,315.5 L420.8,314.2 L423.7,312.8 L426.6,311.2 L429.5,309.6 L432.4,307.8 L435.3,305.9 L438.2,303.9 L441.1,301.8 L444.1,299.7 L447.0,297.5 L449.9,295.2 L452.8,292.9 L455.7,290.6 L458.6,288.3 L461.5,286.1 L464.4,283.9 L467.3,281.8 L470.3,279.8 L473.2,278.0 L476.1,276.4 L479.0,274.9 L481.9,273.6 L484.8,272.6 L487.7,271.8 L490.6,271.3 L493.5,271.0 L496.5,271.0 L499.4,271.3 L502.3,271.8 L505.2,272.6 L508.1,273.6 L511.0,274.9 L513.9,276.4 L516.8,278.0 L519.7,279.8 L522.7,281.8 L525.6,283.9 L528.5,286.1 L531.4,288.3 L534.3,290.6 L537.2,292.9 L540.1,295.2 L543.0,297.5 L545.9,299.7 L548.9,301.8 L551.8,303.9 L554.7,305.9 L557.6,307.8 L560.5,309.6 L563.4,311.2 L566.3,312.8 L569.2,314.2 L572.2,315.5 L575.1,316.7 L578.0,317.8 L580.9,318.7 L583.8,319.6 L586.7,320.4 L589.6,321.0 L592.5,321.6 L595.4,322.2 L598.4,322.6 L601.3,323.0 L604.2,323.3 L607.1,323.6 L610.0,323.9 L610.0,325.0" fill="none" stroke="#7AB3A5" stroke-width="9"></path>
    <line x1="380.0" y1="325.0" x2="610.0" y2="325.0" stroke="#6F8586" stroke-width="4"></line>

    <!-- X: skewed distribution, kept away from the arrow start -->
    <path d="M205.0,570.0 L205.0,568.4 L207.3,566.6 L209.6,563.6 L211.8,559.3 L214.1,553.7 L216.4,546.9 L218.7,539.2 L220.9,530.8 L223.2,522.2 L225.5,513.6 L227.8,505.3 L230.1,497.6 L232.3,490.6 L234.6,484.7 L236.9,479.7 L239.2,475.8 L241.5,472.9 L243.7,471.0 L246.0,470.1 L248.3,470.0 L250.6,470.7 L252.8,472.1 L255.1,474.0 L257.4,476.4 L259.7,479.3 L262.0,482.4 L264.2,485.8 L266.5,489.3 L268.8,493.0 L271.1,496.7 L273.4,500.4 L275.6,504.2 L277.9,507.8 L280.2,511.4 L282.5,514.9 L284.7,518.2 L287.0,521.5 L289.3,524.6 L291.6,527.5 L293.9,530.3 L296.1,533.0 L298.4,535.5 L300.7,537.9 L303.0,540.1 L305.3,542.2 L307.5,544.2 L309.8,546.1 L312.1,547.8 L314.4,549.4 L316.6,550.9 L318.9,552.3 L321.2,553.6 L323.5,554.8 L325.8,556.0 L328.0,557.0 L330.3,558.0 L332.6,558.9 L334.9,559.7 L337.2,560.5 L339.4,561.2 L341.7,561.9 L344.0,562.5 L346.3,563.1 L348.5,563.6 L350.8,564.1 L353.1,564.5 L355.4,564.9 L357.7,565.3 L359.9,565.7 L362.2,566.0 L364.5,566.3 L366.8,566.6 L369.1,566.8 L371.3,567.1 L373.6,567.3 L375.9,567.5 L378.2,567.7 L380.4,567.9 L382.7,568.0 L385.0,568.2 L385.0,570.0 Z" fill="#CFE4DF" opacity="0.95" stroke="none"></path>
    <path d="M205.0,570.0 L205.0,568.4 L207.3,566.6 L209.6,563.6 L211.8,559.3 L214.1,553.7 L216.4,546.9 L218.7,539.2 L220.9,530.8 L223.2,522.2 L225.5,513.6 L227.8,505.3 L230.1,497.6 L232.3,490.6 L234.6,484.7 L236.9,479.7 L239.2,475.8 L241.5,472.9 L243.7,471.0 L246.0,470.1 L248.3,470.0 L250.6,470.7 L252.8,472.1 L255.1,474.0 L257.4,476.4 L259.7,479.3 L262.0,482.4 L264.2,485.8 L266.5,489.3 L268.8,493.0 L271.1,496.7 L273.4,500.4 L275.6,504.2 L277.9,507.8 L280.2,511.4 L282.5,514.9 L284.7,518.2 L287.0,521.5 L289.3,524.6 L291.6,527.5 L293.9,530.3 L296.1,533.0 L298.4,535.5 L300.7,537.9 L303.0,540.1 L305.3,542.2 L307.5,544.2 L309.8,546.1 L312.1,547.8 L314.4,549.4 L316.6,550.9 L318.9,552.3 L321.2,553.6 L323.5,554.8 L325.8,556.0 L328.0,557.0 L330.3,558.0 L332.6,558.9 L334.9,559.7 L337.2,560.5 L339.4,561.2 L341.7,561.9 L344.0,562.5 L346.3,563.1 L348.5,563.6 L350.8,564.1 L353.1,564.5 L355.4,564.9 L357.7,565.3 L359.9,565.7 L362.2,566.0 L364.5,566.3 L366.8,566.6 L369.1,566.8 L371.3,567.1 L373.6,567.3 L375.9,567.5 L378.2,567.7 L380.4,567.9 L382.7,568.0 L385.0,568.2 L385.0,570.0" fill="none" stroke="#2B8A67" stroke-width="9"></path>
    <line x1="205.0" y1="570.0" x2="385.0" y2="570.0" stroke="#6F8586" stroke-width="4"></line>

    <!-- Y: shifted inward so it does not touch the hex boundary -->
    <path d="M660.0,570.0 L660.0,568.1 L662.2,567.7 L664.3,567.3 L666.5,566.7 L668.6,566.1 L670.8,565.4 L672.9,564.5 L675.1,563.5 L677.2,562.4 L679.4,561.2 L681.5,559.8 L683.7,558.2 L685.8,556.4 L688.0,554.5 L690.1,552.4 L692.3,550.1 L694.4,547.5 L696.6,544.8 L698.7,541.9 L700.9,538.9 L703.0,535.6 L705.2,532.2 L707.3,528.7 L709.5,525.1 L711.6,521.4 L713.8,517.7 L715.9,513.9 L718.1,510.2 L720.3,506.5 L722.4,503.0 L724.6,499.6 L726.7,496.4 L728.9,493.4 L731.0,490.7 L733.2,488.3 L735.3,486.3 L737.5,484.6 L739.6,483.3 L741.8,482.5 L743.9,482.1 L746.1,482.1 L748.2,482.5 L750.4,483.3 L752.5,484.6 L754.7,486.3 L756.8,488.3 L759.0,490.7 L761.1,493.4 L763.3,496.4 L765.4,499.6 L767.6,503.0 L769.7,506.5 L771.9,510.2 L774.1,513.9 L776.2,517.7 L778.4,521.4 L780.5,525.1 L782.7,528.7 L784.8,532.2 L787.0,535.6 L789.1,538.9 L791.3,541.9 L793.4,544.8 L795.6,547.5 L797.7,550.1 L799.9,552.4 L802.0,554.5 L804.2,556.4 L806.3,558.2 L808.5,559.8 L810.6,561.2 L812.8,562.4 L814.9,563.5 L817.1,564.5 L819.2,565.4 L821.4,566.1 L823.5,566.7 L825.7,567.3 L827.8,567.7 L830.0,568.1 L830.0,570.0 Z" fill="#D7E8E4" opacity="0.95" stroke="none"></path>
    <path d="M660.0,570.0 L660.0,568.1 L662.2,567.7 L664.3,567.3 L666.5,566.7 L668.6,566.1 L670.8,565.4 L672.9,564.5 L675.1,563.5 L677.2,562.4 L679.4,561.2 L681.5,559.8 L683.7,558.2 L685.8,556.4 L688.0,554.5 L690.1,552.4 L692.3,550.1 L694.4,547.5 L696.6,544.8 L698.7,541.9 L700.9,538.9 L703.0,535.6 L705.2,532.2 L707.3,528.7 L709.5,525.1 L711.6,521.4 L713.8,517.7 L715.9,513.9 L718.1,510.2 L720.3,506.5 L722.4,503.0 L724.6,499.6 L726.7,496.4 L728.9,493.4 L731.0,490.7 L733.2,488.3 L735.3,486.3 L737.5,484.6 L739.6,483.3 L741.8,482.5 L743.9,482.1 L746.1,482.1 L748.2,482.5 L750.4,483.3 L752.5,484.6 L754.7,486.3 L756.8,488.3 L759.0,490.7 L761.1,493.4 L763.3,496.4 L765.4,499.6 L767.6,503.0 L769.7,506.5 L771.9,510.2 L774.1,513.9 L776.2,517.7 L778.4,521.4 L780.5,525.1 L782.7,528.7 L784.8,532.2 L787.0,535.6 L789.1,538.9 L791.3,541.9 L793.4,544.8 L795.6,547.5 L797.7,550.1 L799.9,552.4 L802.0,554.5 L804.2,556.4 L806.3,558.2 L808.5,559.8 L810.6,561.2 L812.8,562.4 L814.9,563.5 L817.1,564.5 L819.2,565.4 L821.4,566.1 L823.5,566.7 L825.7,567.3 L827.8,567.7 L830.0,568.1 L830.0,570.0" fill="none" stroke="#0B2D42" stroke-width="9"></path>
    <line x1="660.0" y1="570.0" x2="830.0" y2="570.0" stroke="#6F8586" stroke-width="4"></line>

    <!-- Smaller arrowheads; direct path dark, mediated paths light -->
    <line x1="340.0" y1="500.0" x2="438.0" y2="408.0" stroke="#9BCBBE" stroke-width="7" marker-end="url(#arrow_light_drmSEM_hex_logo_v1_refined_balance)"></line>
    <line x1="574.0" y1="408.0" x2="664.0" y2="500.0" stroke="#9BCBBE" stroke-width="7" marker-end="url(#arrow_light_drmSEM_hex_logo_v1_refined_balance)"></line>
    <line x1="405.0" y1="570.0" x2="632.0" y2="570.0" stroke="#267F5F" stroke-width="8" marker-end="url(#arrow_dark_drmSEM_hex_logo_v1_refined_balance)"></line>
  </g><g font-family="Arial, Helvetica, sans-serif" text-anchor="middle" font-weight="700" fill="#0B2D42">
    <text x="298" y="648" font-size="58">X</text>
    <text x="495" y="412" font-size="58">M</text>
    <text x="745" y="648" font-size="58">Y</text>
  </g><text x="500" y="782" font-family="Arial, Helvetica, sans-serif" font-size="92" font-weight="400" text-anchor="middle" fill="#2B8A67">drmSEM</text></svg>